<?xml version="1.0" encoding="UTF-8"?>
<svg id="Ebene_1" data-name="Ebene 1" xmlns="http://www.w3.org/2000/svg" viewBox="0 0 1518.8 443.87">
  <defs>
    <style>
      .cls-1 {
        fill: #d70929;
      }

      .cls-2 {
        fill: #54616c;
      }
    </style>
  </defs>
  <path class="cls-2" d="M132.8,419.73c-36.55,0-68.17-13.41-93.99-39.88C13.07,353.46,0,320.98,0,283.27s13.18-69.15,39.18-95.46c26.04-26.37,57.82-39.72,94.47-39.72,21.2,0,40.75,4.61,58.12,13.72,7.98,4.18,15.61,9.43,22.74,15.61v-23.28h54.76v259.57h-54.76v-22.71c-7.78,6.32-15.99,11.61-24.55,15.8-17.36,8.58-36.6,12.94-57.17,12.94M136.12,202.19c-14.46,0-28.01,3.6-40.19,10.72-12.22,7.09-22.08,17.22-29.3,30.08-7.32,13-11.01,26.88-11.01,41.27s3.72,28.11,11.1,41.23c7.33,13.04,17.27,23.32,29.55,30.54,12.29,7.24,25.62,10.9,39.62,10.9s27.98-3.66,40.82-10.9c12.69-7.13,22.55-16.9,29.34-29,6.88-12.26,10.35-26.37,10.35-41.9,0-23.98-7.58-43.35-23.21-59.3-15.59-15.89-34.27-23.62-57.09-23.62"/>
  <path class="cls-2" d="M1207.36,413.7h-55.23V154.13h55.23v259.57ZM1179.65,121.93c-9.43,0-17.67-3.45-24.44-10.26-6.74-6.77-10.17-14.99-10.17-24.44s3.42-17.86,10.17-24.65c6.79-6.81,15-10.25,24.44-10.25s17.83,3.44,24.62,10.25c6.74,6.79,10.17,15.08,10.17,24.65s-3.43,17.67-10.17,24.44c-6.78,6.81-15.06,10.26-24.62,10.26"/>
  <path class="cls-2" d="M1384.05,419.73c-39.45,0-72.2-13.69-97.39-40.76-24.92-26.74-37.58-58.52-37.58-94.41s12.01-66.79,35.63-92.91c26.12-28.89,59.53-43.55,99.34-43.55s73,14.56,99.1,43.32c23.66,26.12,35.65,57.47,35.65,93.14s-12.64,67.68-37.57,94.41c-25.18,27.06-57.89,40.76-97.18,40.76M1383.96,202.64c-21.79,0-40.02,7.86-55.72,24.03-15.82,16.27-23.52,35.4-23.52,58.52,0,14.72,3.63,28.62,10.75,41.33,7.01,12.55,16.64,22.38,28.61,29.21,12.03,6.83,25.44,10.32,39.88,10.32s27.85-3.5,39.89-10.34c11.9-6.79,21.52-16.62,28.58-29.19,7.12-12.71,10.73-26.61,10.73-41.33,0-23.12-7.71-42.25-23.58-58.52-15.79-16.17-34-24.03-55.63-24.03"/>
  <path class="cls-2" d="M461.66,148.08c-20.53,0-39.69,4.32-56.97,12.81-8.5,4.19-16.7,9.46-24.45,15.76V0h-55.18v413.7h55.18v-23.38c7.17,6.21,14.8,11.47,22.8,15.7,17.25,9.08,36.68,13.71,57.74,13.71,36.63,0,68.4-13.35,94.42-39.71,25.97-26.31,39.14-58.5,39.14-95.68s-13.06-69.99-38.78-96.36c-25.8-26.46-57.39-39.89-93.91-39.89M527.73,324.78c-7.25,12.92-17.11,23.06-29.26,30.11-12.18,7.09-25.68,10.73-40.17,10.73-22.81,0-41.44-7.73-56.96-23.63-15.62-15.98-23.23-35.4-23.23-59.38,0-15.56,3.48-29.68,10.35-41.98,6.8-12.12,16.69-21.94,29.45-29.16,12.88-7.3,26.61-10.99,40.84-10.99s27.09,3.66,39.33,10.89c12.29,7.24,22.24,17.51,29.53,30.57,7.37,13.14,11.1,27.12,11.1,41.55s-3.7,28.27-10.98,41.29"/>
  <path class="cls-2" d="M867.81,332.59h-36.36c-4.56,6.25-8.89,11.18-12.82,14.59-6.76,5.87-15.15,10.65-24.97,14.27-9.91,3.6-20.19,5.46-30.6,5.46-21.41,0-38.87-7.3-53.38-22.32-12.06-12.45-19.15-27.49-21.64-45.81h179.78v-102.68c-26.07-31.84-60.98-48.02-103.9-48.02s-77.32,16.57-102.84,49.2c-19.95,25.42-30.07,54.78-30.07,87.28,0,34.54,11.91,65.92,35.38,93.21,23.96,27.84,57.34,41.96,99.29,41.96,18.73,0,35.87-2.9,50.97-8.69,15.07-5.79,28.83-14.33,40.9-25.43,3.44-3.17,6.91-6.95,10.28-11v-42.02ZM713.31,221.02c14.32-12.79,31.01-19.02,51.05-19.02,12.09,0,23.75,2.58,34.69,7.66,10.84,5.04,19.64,11.7,26.11,19.75,3.95,4.97,8.84,13.16,12.15,22.97h-144.09c5.3-14.19,12.95-24.98,20.09-31.37"/>
  <polygon class="cls-1" points="1039.6 443.87 1039.6 1.48 1094.82 1.48 1094.82 413.27 1039.6 443.87"/>
  <polygon class="cls-1" points="921.52 443.87 921.52 1.48 976.74 1.48 976.74 413.27 921.52 443.87"/>
</svg>